<?xml version="1.0" encoding="UTF-8"?>
<svg xmlns="http://www.w3.org/2000/svg" xmlns:xlink="http://www.w3.org/1999/xlink" width="500px" height="496px" viewBox="0 0 500 496" version="1.1">
<g id="surface1">
<path style="fill-rule:nonzero;fill:rgb(100%,84.313725%,0%);fill-opacity:1;stroke-width:1;stroke-linecap:butt;stroke-linejoin:miter;stroke:rgb(0%,0%,0%);stroke-opacity:1;stroke-miterlimit:4;" d="M 10650 10853.024981 C 9664 10751.969664 8835 10309.022177 8162 9522.958669 C 8104 9455.03481 8055 9399.96141 8053 9399.96141 C 8051 9399.96141 7981 9430.033235 7897 9465.962072 C 6969 9867.997889 6112 10102.977728 5270 10184.975901 C 5044 10207.005261 4549 10216.009325 4330 10200.973412 C 3309 10132.000536 2475 9785.999716 1870 9180.017484 C 1483 8793.017578 1255 8342.027627 1174 7805.018271 C 1152 7659.030053 1149 7293.972089 1168 7149.994487 C 1257 6480.983808 1553 5920.021894 2096 5388.956968 C 2776 4725.978138 3766 4201.994078 5035 3833.963899 C 5239 3773.995086 5724 3650.036227 5752 3650.036227 C 5761 3650.036227 5772 3644.965978 5775 3639.983146 C 5782 3628.968466 5559 3188.993196 5463 3022.024635 C 5406 2922.018334 5329 2806.976121 5288 2756.972971 L 5265 2728.999181 L 5085 2774.0195 C 4746 2858.028289 4450 2911.965253 4125 2947.019909 C 3924 2968.000252 3395 2970.972467 3210 2952.002741 C 2509 2879.008632 1985 2683.978862 1555 2337.016444 C 1464 2262.973318 1240 2036.997543 1210 1988.04341 C 1186 1948.967521 1181 1815.043 1202 1786.981792 C 1219 1766.001449 1374 1693.968939 1518 1640.993574 C 1894 1502.960402 2422 1404.964718 2890 1385.033392 C 2964 1381.973759 3074 1378.039945 3134 1374.980311 C 3282 1369.035881 3676 1385.994991 3846 1404.964718 C 4510 1479.969443 5046 1668.005765 5490 1982.97316 C 5537 2016.0172 5584 2052.033455 5596 2061.999118 C 5617 2080.007245 5619 2080.007245 5771 2014.006584 C 6517 1691.958323 7183 1490.984123 7765 1410.034967 C 8789 1269.02958 9775 1565.988848 10496 2232.027312 C 11100 2790.017011 11456 3511.041457 11541 4347.982296 C 11556 4497.991746 11547 4978.004505 11526 5125.04174 C 11399 6013.034747 10996 6831.005859 10271 7669.957315 C 10113 7853.010805 9710 8256.008222 9519 8422.976783 C 9340 8579.018082 9157 8729.027533 8983 8863.039472 L 8851 8964.968971 L 8896 9050.026777 C 9013 9266.998488 9167 9476.976752 9345 9658.981225 C 9653 9974.997637 9988 10179.99307 10440 10330.00252 C 10520 10355.965694 10638 10389.971333 10702 10405.007245 L 10820 10432.981036 L 10875 10491.026651 L 10930 10548.984848 L 10930 10646.980532 C 10930 10758.001512 10930 10758.001512 10852 10819.019342 C 10796 10862.029045 10773 10865.962859 10650 10853.024981 Z M 5555 9631.007434 C 6241 9547.960244 6877 9364.994172 7575 9050.988376 C 7674 9005.968057 7758 8966.017988 7763 8961.035156 C 7768 8955.964907 7732 8868.022303 7685 8763.994771 C 7567 8508.034589 7437 8194.028793 7354 7964.993385 C 7317 7860.965852 7285 7773.023248 7283 7771.012632 C 7282 7769.002016 7263 7773.984848 7243 7782.027312 C 6724 7996.026808 6424 8092.011876 6028 8169.988817 C 5121 8351.031691 4181 8253.036007 3426 7900.04174 C 3365 7871.980532 3315 7841.996125 3306 7828.00923 C 3298 7816.032951 3284 7776.957063 3274 7744.000441 C 3257 7682.982611 3258 7682.982611 3285 7598.973822 C 3300 7552.991904 3320 7507.009986 3329 7498.005922 C 3338 7488.04026 3381 7473.004347 3427 7464.000284 L 3508 7447.041173 L 3657 7502.988754 C 4547 7834.041079 5549 7832.030462 6580 7498.005922 C 6801 7425.973412 7100 7311.018618 7106 7295.021106 C 7114 7275.002363 6823 6337.967805 6624 5740.028037 C 6365 4968.038842 6027 4099.977161 5984 4099.977161 C 5936 4099.977161 5468 4226.034054 5185 4315.025674 C 4716 4463.024509 4219 4675.013388 3850 4884.991652 C 3664 4991.029801 3401 5167.964025 3240 5296.031534 C 3088 5417.979776 2808 5692.035503 2706 5820.015593 C 2423 6175.020476 2255 6567.003213 2211 6972.011246 C 2188 7177.968277 2203 7505.960969 2245 7730.013546 C 2391 8506.985572 2935 9143.03963 3720 9453.024194 C 3982 9556.002709 4257 9617.020539 4625 9653.998393 C 4647 9656.00901 4825 9656.970609 5020 9654.959992 C 5309 9653.036794 5408 9647.966545 5555 9631.007434 Z M 8945 8254.959205 C 9731 7627.996629 10295 6788.957756 10525 5904.985982 C 10697 5240.958134 10672 4461.013892 10459 3876.973601 C 10170 3086.01468 9522 2487.025895 8695 2246.975806 C 8386 2157.022587 8086 2118.995716 7695 2118.995716 C 7392 2118.034117 7196 2137.965442 6885 2200.993889 C 6654 2248.024824 6247 2371.022083 6047 2455.030872 L 6010 2469.979366 L 6129 2622.961032 C 6308 2851.99644 6488 3102.012191 6637 3327.987966 C 6756 3507.020224 6775 3530.972782 6793 3525.989951 C 6844 3512.003056 7349 3507.020224 7495 3518.996503 C 8052 3564.978421 8480 3716.998488 8820 3990.966797 C 9109 4222.97442 9294 4529.02517 9369 4894.957315 C 9488 5474.014774 9331 6045.029769 8909 6569.975428 C 8762 6753.028919 8486 7015.982548 8269 7177.968277 L 8213 7220.016381 L 8247 7332.960559 C 8331 7614.009734 8466 7992.005576 8586 8287.041646 C 8617 8363.00797 8646 8435.04048 8651 8447.978358 C 8659 8470.007718 8662 8468.958701 8746 8408.028289 C 8793 8372.973633 8883 8304.962355 8945 8254.959205 Z M 8132 6630.993259 C 8410 6407.0281 8618 6154.040134 8749 5879.984407 C 8860 5647.976783 8894 5506.971396 8894 5274.963773 C 8894 5103.973979 8880 5003.967679 8839 4875.025989 C 8781 4691.972499 8692 4552.016129 8543 4409.000126 C 8316 4190.017799 8012 4058.978075 7615 4008.974924 C 7519 3996.998645 7056 3990.966797 7045 4001.981477 C 7042 4005.04111 7066 4058.016476 7099 4120.957504 C 7354 4607.002111 7682 5494.033518 7940 6389.981571 C 8009 6630.993259 8031 6699.966135 8038 6699.966135 C 8042 6699.966135 8084 6669.02013 8132 6630.993259 Z M 4430 2405.989321 C 4550 2389.03021 4800 2342.960874 4806 2337.016444 C 4808 2335.005828 4760 2301.000189 4699 2260.962702 C 4364 2037.959142 3967 1904.034621 3499 1854.031471 C 3313 1834.012727 2946 1832.002111 2805 1848.961221 C 2698 1863.035534 2536 1893.98154 2482 1911.028068 L 2450 1922.042748 L 2492 1957.009986 C 2573 2025.021264 2746 2132.982611 2875 2196.011057 C 3096 2303.010805 3352 2378.97713 3610 2414.993385 C 3752 2433.963111 4265 2428.98028 4430 2405.989321 Z M 4430 2405.989321 " transform="matrix(0.03125,0,0,-0.0446847,40.625,509.405405)"/>
<path style="fill-rule:nonzero;fill:rgb(18.039216%,67.45098%,96.078431%);fill-opacity:1;stroke-width:1;stroke-linecap:butt;stroke-linejoin:miter;stroke:rgb(0%,0%,0%);stroke-opacity:1;stroke-miterlimit:4;" d="M 10650 10852.956464 C 9664 10751.988565 8835 10309.041079 8162 9522.977571 C 8104 9454.966293 8055 9399.980311 8053 9399.980311 C 8051 9399.980311 7981 9429.964718 7897 9465.980973 C 6969 9868.016791 6112 10102.996629 5270 10184.994802 C 5044 10207.024162 4549 10216.028226 4330 10200.992314 C 3309 10132.019437 2475 9786.018618 1870 9180.036385 C 1483 8793.036479 1255 8341.95911 1174 7805.037172 C 1152 7658.961536 1149 7293.99099 1168 7150.013388 C 1257 6481.002709 1553 5920.040795 2096 5388.975869 C 2776 4725.997039 3766 4202.012979 5035 3833.9828 C 5239 3774.013987 5724 3649.96771 5752 3649.96771 C 5761 3649.96771 5772 3644.984879 5775 3640.002048 C 5782 3628.987368 5559 3189.012097 5463 3022.043536 C 5406 2922.037235 5329 2806.995023 5288 2756.991872 L 5265 2729.018082 L 5085 2774.038401 C 4746 2857.959772 4450 2911.984154 4125 2947.03881 C 3924 2968.019153 3395 2970.991368 3210 2952.021642 C 2509 2879.027533 1985 2683.997763 1555 2337.035345 C 1464 2262.992219 1240 2037.016444 1210 1987.974893 C 1186 1948.986423 1181 1814.974483 1202 1787.000693 C 1219 1766.02035 1374 1693.98784 1518 1641.012475 C 1894 1502.979303 2422 1404.983619 2890 1384.964875 C 2964 1381.99266 3074 1377.971428 3134 1374.999212 C 3282 1368.967364 3676 1386.013892 3846 1404.983619 C 4510 1479.988344 5046 1668.024666 5490 1982.992061 C 5537 2016.036101 5584 2051.964938 5596 2062.018019 C 5617 2080.026147 5619 2080.026147 5771 2014.025485 C 6517 1691.977224 7183 1491.003024 7765 1409.96645 C 8789 1268.961064 9775 1566.007749 10496 2231.958795 C 11100 2790.035912 11456 3510.97294 11541 4348.001197 C 11556 4498.010648 11547 4978.023406 11526 5124.973223 C 11399 6012.96623 10996 6831.024761 10271 7669.976216 C 10113 7853.029706 9710 8256.027123 9519 8422.995684 C 9340 8579.036983 9157 8728.959016 8983 8862.970955 L 8851 8964.987872 L 8896 9049.95826 C 9013 9267.017389 9167 9476.995653 9345 9659.000126 C 9653 9975.016539 9988 10180.011971 10440 10330.021421 C 10520 10355.984596 10638 10389.990234 10702 10405.026147 L 10820 10432.999937 L 10875 10490.958134 L 10930 10549.003749 L 10930 10646.999433 C 10930 10758.020413 10930 10758.020413 10852 10819.038243 C 10796 10861.960528 10773 10865.98176 10650 10852.956464 Z M 5555 9631.026336 C 6241 9547.979146 6877 9365.013073 7575 9051.007277 C 7674 9005.986958 7758 8966.036889 7763 8960.966639 C 7768 8955.983808 7732 8868.041205 7685 8764.013672 C 7567 8507.966072 7437 8193.960276 7354 7965.012286 C 7317 7860.984753 7285 7773.04215 7283 7771.031534 C 7282 7769.020917 7263 7774.003749 7243 7781.958795 C 6724 7995.958291 6424 8092.030777 6028 8170.007718 C 5121 8350.963174 4181 8252.96749 3426 7899.973223 C 3365 7871.999433 3315 7842.015026 3306 7828.028131 C 3298 7815.964434 3284 7776.975964 3274 7744.019342 C 3257 7683.001512 3258 7683.001512 3285 7598.992723 C 3300 7553.010805 3320 7507.028887 3329 7498.024824 C 3338 7487.971743 3381 7473.023248 3427 7464.019185 L 3508 7446.972656 L 3657 7503.007655 C 4547 7833.972562 5549 7831.961946 6580 7498.024824 C 6801 7425.992314 7100 7311.037519 7106 7295.040008 C 7114 7275.021264 6823 6337.986706 6624 5739.95952 C 6365 4967.970325 6027 4099.996062 5984 4099.996062 C 5936 4099.996062 5468 4225.965537 5185 4314.957157 C 4716 4463.04341 4219 4675.03229 3850 4885.010553 C 3664 4990.961284 3401 5167.982926 3240 5295.963017 C 3088 5417.998677 2808 5691.966986 2706 5820.034495 C 2423 6175.039378 2255 6567.022114 2211 6972.030147 C 2188 7177.987179 2203 7505.97987 2245 7730.032447 C 2391 8507.004473 2935 9142.971113 3720 9453.043095 C 3982 9556.02161 4257 9617.039441 4625 9654.017295 C 4647 9656.027911 4825 9656.98951 5020 9654.978894 C 5309 9652.968277 5408 9647.985446 5555 9631.026336 Z M 8945 8254.978106 C 9731 7628.01553 10295 6788.976657 10525 5905.004883 C 10697 5240.977035 10672 4461.032794 10459 3876.992503 C 10170 3086.033581 9522 2486.957378 8695 2246.994708 C 8386 2157.041488 8086 2119.014617 7695 2119.014617 C 7392 2117.9656 7196 2137.984343 6885 2201.01279 C 6654 2247.956307 6247 2371.040984 6047 2454.962355 L 6010 2469.998267 L 6129 2622.979933 C 6308 2852.015341 6488 3102.031092 6637 3328.006867 C 6756 3507.039126 6775 3530.991683 6793 3526.008852 C 6844 3512.021957 7349 3507.039126 7495 3519.015404 C 8052 3564.997322 8480 3717.017389 8820 3990.985698 C 9109 4222.993322 9294 4528.956653 9369 4894.976216 C 9488 5474.033676 9331 6044.961253 8909 6569.99433 C 8762 6752.960402 8486 7016.001449 8269 7177.987179 L 8213 7220.035282 L 8247 7332.979461 C 8331 7614.028635 8466 7992.024477 8586 8286.973129 C 8617 8363.026871 8646 8434.971963 8651 8447.997259 C 8659 8470.026619 8662 8468.977602 8746 8407.959772 C 8793 8372.992534 8883 8304.981256 8945 8254.978106 Z M 8132 6631.01216 C 8410 6406.959583 8618 6153.971617 8749 5880.003308 C 8860 5647.995684 8894 5506.990297 8894 5274.982674 C 8894 5103.992881 8880 5003.98658 8839 4874.957472 C 8781 4691.9914 8692 4552.03503 8543 4409.019027 C 8316 4190.0367 8012 4058.996976 7615 4008.993826 C 7519 3997.017547 7056 3990.985698 7045 4002.000378 C 7042 4004.972593 7066 4058.035377 7099 4120.976405 C 7354 4607.021012 7682 5493.965001 7940 6390.000473 C 8009 6631.01216 8031 6699.985037 8038 6699.985037 C 8042 6699.985037 8084 6669.039031 8132 6631.01216 Z M 4430 2406.008222 C 4550 2388.961694 4800 2342.979776 4806 2337.035345 C 4808 2335.024729 4760 2301.01909 4699 2260.981603 C 4364 2037.978043 3967 1903.966104 3499 1853.962954 C 3313 1834.031628 2946 1832.021012 2805 1848.980122 C 2698 1862.967017 2536 1894.000441 2482 1910.959551 L 2450 1921.974231 L 2492 1957.028887 C 2573 2025.040165 2746 2133.001512 2875 2196.029958 C 3096 2303.029706 3352 2378.996031 3610 2415.012286 C 3752 2433.982012 4265 2428.999181 4430 2406.008222 Z M 4430 2406.008222 " transform="matrix(0.03125,0,0,-0.0446847,50,496)"/>
</g>
</svg>
